# Created by Open3D 
# object name: infeasible
# number of vertices: 736
# number of triangles: 1308
v 0.717 0.697151 -0.0954433
v 0.599 0.697151 -0.0954432
v 0.599 0.737219 -0.161163
v 0.717 0.737219 -0.161163
v 0.599 0.651837 -0.213219
v 0.599 0.624377 -0.16818
v 0.689133 0.651837 -0.213219
v 0.717 0.666251 -0.204431
v 0.717 0.64747 -0.145099
v 0.667735 0.624377 -0.16818
v 0.663 0.647599 -0.212051
v 0.545 0.647599 -0.212051
v 0.545 0.736051 -0.165401
v 0.663 0.736051 -0.165401
v 0.663 0.703464 -0.103614
v 0.545 0.703464 -0.103614
v 0.545 0.600949 -0.123599
v 0.663 0.6394 -0.196506
v 0.587152 0.600949 -0.123599
v 0.545 0.610715 -0.118449
v 0.592917 0.610715 -0.118449
v 0.663 0.698328 -0.104435
v 0.609 0.739192 -0.142878
v 0.491 0.739192 -0.142878
v 0.491 0.666878 -0.0738079
v 0.609 0.666878 -0.0738079
v 0.491 0.597808 -0.146122
v 0.609 0.597808 -0.146122
v 0.491 0.672113 -0.213108
v 0.491 0.667153 -0.212356
v 0.609 0.672113 -0.213108
v 0.609 0.667153 -0.212356
v 0.502011 0.616955 -0.0960938
v 0.555 0.643026 -0.0952752
v 0.555 0.617559 -0.11531
v 0.555 0.720045 -0.192906
v 0.555 0.620094 -0.196045
v 0.555 0.716906 -0.0929554
v 0.536038 0.720045 -0.192906
v 0.446111 0.620094 -0.196045
v 0.437 0.619825 -0.187466
v 0.437 0.616955 -0.0960938
v 0.437 0.716906 -0.0929554
v 0.437 0.717117 -0.0996578
v 0.38748 0.620253 -0.166622
v 0.383 0.61156 -0.157694
v 0.383 0.616312 -0.15988
v 0.383 0.669442 -0.0737956
v 0.501 0.597796 -0.143558
v 0.501 0.669442 -0.0737956
v 0.383 0.597796 -0.143558
v 0.501 0.676835 -0.0813879
v 0.501 0.650992 -0.198192
v 0.383 0.694061 -0.0990789
v 0.39577 0.707514 -0.112896
v 0.383 0.688034 -0.184358
v 0.387943 0.693204 -0.190233
v 0.387284 0.692405 -0.191011
v 0.39175 0.688315 -0.194994
v 0.397982 0.638701 -0.185569
v 0.460356 0.662842 -0.210361
v 0.407589 0.684245 -0.198956
v 0.389309 0.700317 -0.180356
v 0.447 0.677776 -0.165356
v 0.447 0.664098 -0.180233
v 0.447 0.686508 -0.0935459
v 0.329 0.667172 -0.0945045
v 0.329 0.616086 -0.097037
v 0.447 0.616086 -0.097037
v 0.441308 0.688927 -0.093426
v 0.329 0.618177 -0.139231
v 0.447 0.619856 -0.173102
v 0.375442 0.619856 -0.173102
v 0.373856 0.704399 -0.18037
v 0.3778 0.705176 -0.180373
v 0.329 0.689594 -0.162308
v 0.447 0.627292 -0.180108
v 0.380248 0.627292 -0.180108
v 0.329 0.664354 -0.161491
v 0.379479 0.628437 -0.180112
v 0.312704 0.717107 -0.1069
v 0.358765 0.719285 -0.164197
v 0.282697 0.719709 -0.175372
v 0.393 0.6401 -0.0955432
v 0.275 0.639202 -0.0955773
v 0.275 0.616637 -0.0964348
v 0.393 0.616637 -0.0964348
v 0.313262 0.706546 -0.093018
v 0.275 0.707522 -0.177519
v 0.275 0.618145 -0.136107
v 0.275 0.674097 -0.180294
v 0.393 0.618531 -0.146257
v 0.306185 0.619126 -0.161935
v 0.393 0.68818 -0.161735
v 0.393 0.647646 -0.1651
v 0.302554 0.644082 -0.178726
v 0.271079 0.651534 -0.194659
v 0.270443 0.651377 -0.194646
v 0.270927 0.651112 -0.194625
v 0.221 0.638769 -0.167407
v 0.221 0.649617 -0.175436
v 0.221 0.651749 -0.171694
v 0.339 0.676606 -0.0963285
v 0.253777 0.676018 -0.143869
v 0.339 0.688662 -0.160108
v 0.285268 0.670478 -0.0958441
v 0.339 0.685338 -0.165943
v 0.339 0.605595 -0.0907156
v 0.339 0.601513 -0.142364
v 0.226831 0.605595 -0.0907156
v 0.296451 0.599661 -0.165789
v 0.222307 0.601667 -0.140419
v 0.227578 0.639102 -0.0933641
v 0.223109 0.663602 -0.151836
v 0.285 0.667032 -0.1376
v 0.285 0.65897 -0.0872269
v 0.209944 0.65897 -0.0872269
v 0.167 0.636451 -0.0908308
v 0.285 0.560227 -0.10303
v 0.167 0.560227 -0.10303
v 0.167 0.568828 -0.156773
v 0.167 0.595534 -0.164925
v 0.285 0.567125 -0.146132
v 0.285 0.648589 -0.170997
v 0.245795 0.576139 -0.175633
v 0.170802 0.629391 -0.183404
v 0.18366 0.566813 -0.168344
v 0.131 0.656768 -0.175453
v 0.131 0.608897 -0.0743146
v 0.131 0.687685 -0.135897
v 0.131 0.55575 -0.142311
v 0.249 0.631565 -0.0920322
v 0.249 0.547315 -0.153103
v 0.249 0.608897 -0.0743146
v 0.249 0.574513 -0.174362
v 0.162873 0.547315 -0.153103
v 0.143308 0.65351 -0.179621
v 0.138351 0.687685 -0.135897
v 0.167743 0.626966 -0.187036
v 0.155329 0.622122 -0.190258
v 0.168055 0.626294 -0.186954
v 0.0769999 0.602582 -0.192786
v 0.0769999 0.677513 -0.117761
v 0.0769999 0.593942 -0.077829
v 0.0769999 0.550829 -0.168058
v 0.131137 0.550829 -0.168058
v 0.195 0.593942 -0.077829
v 0.195 0.561053 -0.146661
v 0.0961748 0.684171 -0.120942
v 0.195 0.684171 -0.120942
v 0.0887371 0.606657 -0.194734
v 0.156084 0.655984 -0.179934
v 0.119636 0.621837 -0.195404
v 0.127253 0.606657 -0.194734
v 0.195 0.621301 -0.173742
v 0.195 0.66113 -0.169164
v 0.183494 0.658153 -0.175393
v 0.135781 0.61522 -0.195112
v 0.141 0.631267 -0.0751425
v 0.023 0.631267 -0.0751425
v 0.023 0.548142 -0.130733
v 0.141 0.548142 -0.130733
v 0.023 0.675557 -0.141369
v 0.023 0.59338 -0.198377
v 0.0578923 0.686857 -0.158267
v 0.141 0.665217 -0.125908
v 0.0652348 0.686857 -0.158267
v 0.141 0.575166 -0.171142
v 0.141 0.613887 -0.183818
v 0.1273 0.612992 -0.195094
v 0.1031 0.6251 -0.199568
v 0.114559 0.594285 -0.19973
v 0.0621212 0.608763 -0.210493
v 0.0565787 0.602705 -0.212321
v 0.055159 0.609221 -0.210187
v 0.0516005 0.602643 -0.212228
v 0.0782993 0.6267 -0.205136
v 0.087 0.623257 -0.2034
v 0.087 0.631179 -0.202574
v 0.087 0.633399 -0.201811
v 0.0532579 0.644523 -0.201959
v 0.087 0.652767 -0.185611
v 0.087 0.595367 -0.0773425
v -0.031 0.550342 -0.166633
v 0.087 0.550342 -0.166633
v -0.031 0.595367 -0.0773425
v -6.67037e-05 0.684658 -0.122367
v 0.087 0.684658 -0.122367
v -0.031 0.663504 -0.111701
v -0.031 0.603338 -0.193356
v 0.0158387 0.635368 -0.209507
v 0.0208152 0.642195 -0.206576
v 0.033 0.621522 -0.209968
v 0.033 0.612396 -0.211362
v 0.00309245 0.61608 -0.215196
v -0.0494801 0.585199 -0.162354
v -0.0171805 0.566023 -0.163088
v -0.0320149 0.582969 -0.180728
v -0.085 0.61892 -0.0738036
v 0.033 0.61892 -0.0738036
v 0.033 0.688196 -0.14592
v -0.085 0.688196 -0.14592
v 0.033 0.546804 -0.14308
v -0.085 0.606514 -0.0857207
v 0.0219084 0.546804 -0.14308
v -0.085 0.641544 -0.189983
v -0.085 0.642209 -0.190097
v -0.085 0.605118 -0.0882938
v -0.085 0.606029 -0.145429
v 0.0117704 0.548535 -0.144883
v -0.0111041 0.61608 -0.215196
v -0.0371565 0.61216 -0.211116
v -0.0510417 0.624471 -0.207135
v -0.0481635 0.620429 -0.208147
v -0.0346011 0.617628 -0.196388
v -0.139 0.613179 -0.195165
v -0.139 0.652469 -0.205959
v -0.0498562 0.652469 -0.205959
v -0.131607 0.582531 -0.0830412
v -0.139 0.582531 -0.0830412
v -0.139 0.678959 -0.109531
v -0.021 0.678959 -0.109531
v -0.021 0.603344 -0.0887586
v -0.139 0.574585 -0.131422
v -0.139 0.574533 -0.112156
v -0.021 0.596621 -0.160894
v -0.021 0.61125 -0.185055
v -0.021 0.659721 -0.17956
v -0.021 0.596461 -0.101611
v -0.115487 0.578866 -0.0963848
v -0.193 0.540896 -0.132653
v -0.193 0.57576 -0.1959
v -0.168571 0.532656 -0.176323
v -0.193 0.613064 -0.200317
v -0.193 0.606125 -0.209692
v -0.18979 0.608348 -0.210701
v -0.193 0.554456 -0.0875382
v -0.185898 0.558653 -0.0782988
v -0.193 0.607299 -0.100394
v -0.161985 0.646833 -0.11835
v -0.193 0.626309 -0.137542
v -0.193 0.616757 -0.104689
v -0.124481 0.539864 -0.144824
v -0.116736 0.574378 -0.085441
v -0.075 0.609873 -0.101563
v -0.075 0.591869 -0.141775
v -0.132507 0.546206 -0.112314
v -0.148327 0.547992 -0.101771
v -0.167671 0.558653 -0.0782988
v -0.075 0.59757 -0.153633
v -0.075 0.649701 -0.119653
v -0.075 0.620309 -0.184366
v -0.101693 0.608348 -0.210701
v -0.141482 0.537748 -0.178636
v -0.15754 0.649701 -0.119653
v -0.193 0.625678 -0.172544
v -0.193 0.546355 -0.105375
v -0.144843 0.533102 -0.176525
v -0.190713 0.5995 -0.0958217
v -0.157417 0.5995 -0.191341
v -0.120692 0.5995 -0.184502
v -0.138998 0.5995 -0.0861918
v -0.19257 0.5995 -0.154366
v -0.237308 0.493379 -0.104498
v -0.173965 0.519342 -0.184562
v -0.166731 0.515313 -0.127027
v -0.197855 0.503549 -0.0971516
v -0.233498 0.496582 -0.124962
v -0.120692 0.587719 -0.184502
v -0.164499 0.533369 -0.192659
v -0.131165 0.561257 -0.128259
v -0.138998 0.592417 -0.0861918
v -0.234384 0.525444 -0.120204
v -0.237308 0.507592 -0.104498
v -0.219061 0.559439 -0.1011
v -0.220876 0.570163 -0.128483
v -0.21509 0.581558 -0.133059
v -0.196264 0.595232 -0.0968552
v -0.215274 0.581397 -0.132289
v -0.206093 0.581866 -0.0986855
v -0.217164 0.578157 -0.130865
v -0.217817 0.576933 -0.130803
v -0.251881 0.493269 -0.17391
v -0.249835 0.504653 -0.174875
v -0.246225 0.49345 -0.176576
v -0.186958 0.4765 -0.141867
v -0.17912 0.524788 -0.166394
v -0.223424 0.490614 -0.17547
v -0.186499 0.476673 -0.141661
v -0.185597 0.478561 -0.13816
v -0.242475 0.477133 -0.123708
v -0.220914 0.503288 -0.0779559
v -0.190173 0.500721 -0.0924432
v -0.179075 0.524967 -0.16636
v -0.182046 0.498668 -0.145088
v -0.236837 0.536891 -0.111744
v -0.220914 0.544901 -0.0779559
v -0.259141 0.489602 -0.159071
v -0.257644 0.510408 -0.155896
v -0.203188 0.5655 -0.0863098
v -0.231994 0.548257 -0.136605
v -0.204502 0.5655 -0.0917012
v -0.188878 0.5655 -0.0961717
v -0.179548 0.544544 -0.162977
v -0.242207 0.536806 -0.168728
v -0.189345 0.5655 -0.0928336
v -0.189345 0.507015 -0.0928336
v -0.248483 0.527161 -0.170852
v -0.201 0.529745 -0.129364
v -0.211867 0.501964 -0.0887074
v -0.265208 0.511683 -0.135516
v -0.201 0.507564 -0.0919557
v -0.319 0.485057 -0.194504
v -0.319 0.440049 -0.14562
v -0.319 0.491488 -0.169054
v -0.319 0.430162 -0.162665
v -0.24259 0.435198 -0.153983
v -0.216763 0.477316 -0.0813682
v -0.254571 0.430162 -0.162665
v -0.208563 0.464938 -0.102708
v -0.224319 0.483616 -0.193669
v -0.243894 0.503524 -0.205216
v -0.208894 0.521973 -0.171261
v -0.219941 0.484835 -0.18969
v -0.201 0.530602 -0.14592
v -0.282204 0.507417 -0.147076
v -0.201 0.529615 -0.149825
v -0.210099 0.490676 -0.0821603
v -0.201 0.501537 -0.0884595
v -0.201 0.475828 -0.106627
v -0.201 0.482956 -0.129415
v -0.213873 0.471679 -0.16489
v -0.218991 0.460122 -0.156378
v -0.204422 0.46961 -0.105765
v -0.337 0.446548 -0.144188
v -0.323344 0.454046 -0.118218
v -0.337 0.467171 -0.123722
v -0.219 0.481156 -0.174936
v -0.219 0.458555 -0.138359
v -0.226597 0.454978 -0.159859
v -0.250836 0.436593 -0.178669
v -0.337 0.499193 -0.196742
v -0.337 0.436593 -0.178669
v -0.221107 0.499193 -0.196742
v -0.337 0.509422 -0.147429
v -0.337 0.50899 -0.141258
v -0.219 0.499753 -0.194041
v -0.219 0.509422 -0.147429
v -0.219 0.50899 -0.141258
v -0.219 0.454046 -0.118218
v -0.236951 0.441401 -0.162014
v -0.219 0.453123 -0.121414
v -0.348392 0.522346 -0.168418
v -0.368194 0.510529 -0.156058
v -0.371547 0.508353 -0.176677
v -0.273 0.4564 -0.207339
v -0.279941 0.446854 -0.212974
v -0.273 0.443941 -0.208037
v -0.316731 0.469543 -0.116724
v -0.323649 0.471991 -0.117478
v -0.339446 0.461275 -0.118126
v -0.346814 0.419622 -0.166833
v -0.362587 0.446854 -0.212974
v -0.273 0.407323 -0.145994
v -0.277584 0.48473 -0.121399
v -0.273 0.478129 -0.194515
v -0.303683 0.523826 -0.167545
v -0.273 0.477883 -0.119291
v -0.273 0.469543 -0.116724
v -0.273 0.42561 -0.124172
v -0.348181 0.459432 -0.119984
v -0.359872 0.493177 -0.135763
v -0.343838 0.458901 -0.118528
v -0.321663 0.481701 -0.120467
v -0.332242 0.485493 -0.124341
v -0.337846 0.486772 -0.127741
v -0.337854 0.485521 -0.127007
v -0.306589 0.4975 -0.206273
v -0.306589 0.3805 -0.206273
v -0.387303 0.3805 -0.183312
v -0.361242 0.4975 -0.190726
v -0.293631 0.3805 -0.105991
v -0.279227 0.3805 -0.110089
v -0.370403 0.3805 -0.142476
v -0.343126 0.4975 -0.146954
v -0.279227 0.439264 -0.110089
v -0.286847 0.4975 -0.136875
v -0.293631 0.440333 -0.105991
v -0.321023 0.483813 -0.119009
v -0.291424 0.4975 -0.135403
v -0.291 0.445047 -0.135187
v -0.291 0.394223 -0.103931
v -0.291 0.36408 -0.168757
v -0.291 0.454757 -0.21092
v -0.291 0.467836 -0.182792
v -0.291 0.400857 -0.100494
v -0.409 0.454757 -0.21092
v -0.409 0.36408 -0.168757
v -0.409 0.37553 -0.144132
v -0.351338 0.41283 -0.109894
v -0.409 0.379955 -0.14184
v -0.409 0.465726 -0.187329
v -0.409 0.44217 -0.138122
v -0.39396 0.439061 -0.130487
v -0.340755 0.3125 -0.192359
v -0.367197 0.3125 -0.202195
v -0.346943 0.358445 -0.209504
v -0.315489 0.40522 -0.114543
v -0.346126 0.410303 -0.103486
v -0.348391 0.421183 -0.111127
v -0.322313 0.4295 -0.141259
v -0.346943 0.4295 -0.209504
v -0.312996 0.4045 -0.115443
v -0.312996 0.3125 -0.115443
v -0.426117 0.4295 -0.159542
v -0.393016 0.4295 -0.192876
v -0.353016 0.4295 -0.118589
v -0.381742 0.3125 -0.196945
v -0.407057 0.3125 -0.0814957
v -0.425258 0.3125 -0.131927
v -0.406889 0.349322 -0.187869
v -0.407057 0.314472 -0.0814957
v -0.431979 0.349538 -0.15055
v -0.431979 0.408539 -0.15055
v -0.409549 0.350785 -0.185027
v -0.426141 0.429445 -0.159524
v -0.329451 0.2615 -0.158915
v -0.327323 0.2615 -0.151551
v -0.324574 0.267559 -0.154844
v -0.324574 0.3785 -0.154844
v -0.388656 0.2615 -0.0780745
v -0.388656 0.3785 -0.0780745
v -0.360754 0.3785 -0.185044
v -0.394493 0.269242 -0.213207
v -0.38778 0.2615 -0.207603
v -0.416122 0.2615 -0.201221
v -0.465425 0.2615 -0.142156
v -0.43653 0.3785 -0.118036
v -0.437816 0.3785 -0.145751
v -0.445549 0.370181 -0.145262
v -0.446942 0.367766 -0.126727
v -0.412422 0.265417 -0.205654
v -0.453452 0.357037 -0.132161
v -0.465425 0.307785 -0.142156
v -0.453945 0.35631 -0.146741
v -0.457793 0.340605 -0.151299
v -0.385862 0.2105 -0.184017
v -0.389046 0.212647 -0.204785
v -0.391077 0.2105 -0.204169
v -0.472844 0.2105 -0.0914995
v -0.373999 0.2105 -0.106656
v -0.373999 0.3275 -0.106656
v -0.472844 0.3275 -0.0914995
v -0.485003 0.3275 -0.170792
v -0.386686 0.3275 -0.189394
v -0.389046 0.296604 -0.204785
v -0.485716 0.318167 -0.175442
v -0.485715 0.2105 -0.175442
v -0.487692 0.2765 -0.166413
v -0.466119 0.2765 -0.0871267
v -0.369627 0.2765 -0.113381
v -0.39277 0.2765 -0.198437
v -0.486871 0.1595 -0.163396
v -0.466119 0.1595 -0.0871267
v -0.489971 0.251943 -0.174791
v -0.486511 0.245729 -0.178273
v -0.395575 0.246283 -0.208747
v -0.471677 0.1595 -0.183244
v -0.441206 0.1595 -0.193455
v -0.435973 0.1595 -0.095329
v -0.415501 0.1595 -0.155159
v -0.395575 0.214993 -0.208747
v -0.399759 0.170466 -0.120249
v -0.400306 0.172312 -0.105034
v -0.408887 0.162786 -0.150238
v -0.392448 0.210439 -0.197253
v -0.369627 0.217971 -0.113381
v -0.393165 0.179657 -0.152132
v -0.388666 0.183583 -0.139413
v -0.370744 0.21478 -0.113077
v -0.535 0.156889 -0.142739
v -0.495543 0.163564 -0.171909
v -0.535 0.204702 -0.17452
v -0.535 0.255165 -0.147203
v -0.535 0.226575 -0.177564
v -0.517159 0.238169 -0.180587
v -0.535 0.149607 -0.110913
v -0.417 0.149607 -0.110913
v -0.417 0.247087 -0.0886069
v -0.535 0.247087 -0.0886069
v -0.417 0.251038 -0.190287
v -0.417 0.269393 -0.186087
v -0.417 0.16503 -0.178316
v -0.535 0.259178 -0.141446
v -0.44631 0.257327 -0.188848
v -0.417475 0.269393 -0.186087
v -0.452233 0.0915 -0.161456
v -0.462722 0.0915 -0.11461
v -0.434185 0.108233 -0.132237
v -0.568768 0.163842 -0.1646
v -0.560912 0.2085 -0.147111
v -0.570486 0.162176 -0.162611
v -0.547536 0.2085 -0.171909
v -0.464266 0.2085 -0.180936
v -0.519263 0.2085 -0.0796848
v -0.434185 0.2085 -0.132237
v -0.457198 0.0996117 -0.169494
v -0.519263 0.0915 -0.0796848
v -0.545959 0.0915 -0.122904
v -0.454383 0.0915 -0.164936
v -0.449549 0.1575 -0.165521
v -0.546801 0.1575 -0.121701
v -0.503467 0.1575 -0.0777909
v -0.450998 0.1575 -0.129571
v -0.446596 0.1575 -0.162528
v -0.503467 0.0499993 -0.0777909
v -0.507966 0.0405 -0.0823502
v -0.560324 0.0405 -0.135404
v -0.562293 0.127624 -0.137399
v -0.515952 0.0405 -0.174733
v -0.507781 0.098006 -0.184443
v -0.471477 0.115213 -0.18774
v -0.4987 0.0405 -0.174933
v -0.463443 0.0659724 -0.179599
v -0.462915 0.0810072 -0.117811
v -0.456648 0.0731165 -0.172714
v -0.461376 0.0635605 -0.146993
v -0.481293 0.0405 -0.138969
v -0.460673 0.0669309 -0.176792
v -0.468303 0.0525157 -0.148694
v -0.49722 0.1065 -0.101024
v -0.482422 0.0308477 -0.125659
v -0.45274 0.1065 -0.135966
v -0.514164 -0.0105 -0.181492
v -0.462891 0.1065 -0.176171
v -0.500859 -0.0105 -0.128793
v -0.555409 0.1065 -0.13445
v -0.539355 -0.0105 -0.1138
v -0.573163 -0.0105 -0.157287
v -0.573163 0.0721301 -0.157287
v -0.521939 0.1065 -0.0913962
v -0.538745 -0.0105 -0.184043
v -0.500619 0.1065 -0.180086
v -0.538745 0.0738755 -0.184043
v -0.571956 -0.0592809 -0.198526
v -0.571936 -0.0615 -0.197524
v -0.570026 -0.0615 -0.0985443
v -0.570026 0.0555 -0.0985443
v -0.571956 0.0555 -0.198526
v -0.506226 -0.0615 -0.0997759
v -0.503065 0.0555 -0.0998369
v -0.503065 -0.0561548 -0.0998369
v -0.500235 0.0555 -0.155731
v -0.500235 -0.0147211 -0.155731
v -0.502954 -0.0111461 -0.168131
v -0.502954 0.0555 -0.168131
v -0.517357 0.0555 -0.19958
v -0.517357 -0.0146765 -0.19958
v -0.534901 -0.0443398 -0.199241
v -0.542594 -0.0615 -0.192766
v -0.516941 -0.1125 -0.0920417
v -0.516941 0.00450002 -0.0920417
v -0.587748 0.00450002 -0.126162
v -0.587748 -0.1125 -0.126162
v -0.549729 0.00450002 -0.20506
v -0.500086 0.00450002 -0.183868
v -0.551581 -0.1125 -0.201217
v -0.549729 -0.102841 -0.20506
v -0.503624 -0.1125 -0.164594
v -0.500086 -0.0721276 -0.183868
v -0.491233 -0.0747996 -0.13745
v -0.488968 -0.0785611 -0.136769
v -0.490579 -0.0766995 -0.134267
v -0.571 -0.0869256 -0.0794405
v -0.498083 -0.166559 -0.139926
v -0.571 -0.166559 -0.139926
v -0.532524 -0.0869256 -0.0794405
v -0.470499 -0.128832 -0.189597
v -0.571 -0.128832 -0.189597
v -0.459604 -0.131751 -0.185754
v -0.571 -0.0726027 -0.194136
v -0.571 -0.0570544 -0.118769
v -0.571 -0.0663928 -0.18942
v -0.537486 -0.0611851 -0.11333
v -0.537504 -0.0717806 -0.193512
v -0.490152 -0.07585 -0.17246
v -0.493223 -0.0714066 -0.142205
v -0.537934 -0.0726027 -0.194136
v -0.524973 -0.0800946 -0.0884342
v -0.461019 -0.123839 -0.182453
v -0.455599 -0.149725 -0.101474
v -0.43162 -0.128021 -0.120307
v -0.501771 -0.0768403 -0.165644
v -0.535 -0.0769531 -0.165789
v -0.535 -0.14987 -0.101928
v -0.460448 -0.152151 -0.192666
v -0.472111 -0.095451 -0.189457
v -0.417 -0.133459 -0.18507
v -0.417 -0.167037 -0.187925
v -0.505127 -0.0992718 -0.194346
v -0.512723 -0.117775 -0.196969
v -0.535 -0.169864 -0.164717
v -0.442123 -0.176314 -0.184971
v -0.535 -0.124237 -0.188021
v -0.417 -0.13673 -0.138638
v -0.535 -0.0831504 -0.173718
v -0.417 -0.1643 -0.147244
v -0.417 -0.176314 -0.184971
v -0.464402 -0.0921132 -0.193366
v -0.410985 -0.110779 -0.193349
v -0.437823 -0.102993 -0.15431
v -0.488242 -0.092298 -0.192702
v -0.487991 -0.0932191 -0.193365
v -0.484572 -0.0921132 -0.193366
v -0.517 -0.114098 -0.114449
v -0.517 -0.125763 -0.193335
v -0.517 -0.166226 -0.193298
v -0.517 -0.16042 -0.102989
v -0.517 -0.0965982 -0.177266
v -0.399 -0.166226 -0.193298
v -0.399 -0.122935 -0.193338
v -0.439454 -0.122162 -0.112454
v -0.44643 -0.114098 -0.114449
v -0.399 -0.142067 -0.154879
v -0.470685 -0.16042 -0.102989
v -0.399 -0.164379 -0.164568
v -0.379029 -0.153035 -0.202026
v -0.37342 -0.162775 -0.192799
v -0.41842 -0.201185 -0.156411
v -0.463 -0.201185 -0.156411
v -0.463 -0.165992 -0.189751
v -0.441076 -0.138158 -0.21612
v -0.405012 -0.138158 -0.21612
v -0.369727 -0.140308 -0.152461
v -0.365901 -0.145977 -0.163552
v -0.39636 -0.171723 -0.138064
v -0.383149 -0.144461 -0.134855
v -0.40839 -0.18532 -0.139664
v -0.36429 -0.151836 -0.189476
v -0.463 -0.18532 -0.139664
v -0.443017 -0.137044 -0.2154
v -0.45788 -0.118287 -0.203278
v -0.425016 -0.118287 -0.203278
v -0.401516 -0.135843 -0.214624
v -0.37331 -0.146421 -0.199841
v -0.463 -0.144922 -0.19926
v -0.463 -0.118327 -0.199133
v -0.463 -0.118774 -0.152411
v -0.463 -0.142147 -0.134582
v -0.370208 -0.147065 -0.196808
v -0.403312 -0.118599 -0.170715
v -0.387334 -0.123826 -0.160271
v -0.431791 -0.1188 -0.149748
v -0.401346 -0.1188 -0.149748
v -0.40125 -0.118763 -0.153534
v -0.379954 -0.129383 -0.148723
v -0.385217 -0.12422 -0.149606
v -0.389986 -0.135122 -0.133755
v -0.385611 -0.124073 -0.149324
v -0.390057 -0.122516 -0.149035
v -0.38532 -0.128297 -0.143572
v -0.389765 -0.131685 -0.136359
v -0.401525 -0.119874 -0.146364
v -0.399816 -0.119332 -0.148073
v -0.42537 -0.138289 -0.211977
v -0.445 -0.138289 -0.211977
v -0.445 -0.145362 -0.214942
v -0.407977 -0.124498 -0.144085
v -0.401219 -0.151826 -0.123552
v -0.432684 -0.189459 -0.143175
v -0.445 -0.181945 -0.161106
v -0.445 -0.132577 -0.183856
v -0.445 -0.160336 -0.212668
v -0.369887 -0.137429 -0.145281
v -0.379328 -0.170092 -0.189389
v -0.360357 -0.154312 -0.189916
v -0.359776 -0.136461 -0.158871
v -0.411492 -0.163421 -0.205307
v -0.381675 -0.136518 -0.203258
v -0.374314 -0.143845 -0.200631
v -0.385422 -0.125724 -0.150122
v -0.375858 -0.127759 -0.151426
v -0.36338 -0.132648 -0.15978
v -0.369918 -0.1292 -0.167234
v -0.365637 -0.130854 -0.161342
v -0.375019 -0.127477 -0.158752
v -0.373662 -0.128037 -0.154702
v -0.37539 -0.127833 -0.151891
v -0.372638 -0.172531 -0.188399
v -0.409473 -0.127289 -0.209415
v -0.41276 -0.189267 -0.201087
v -0.37259 -0.134771 -0.194217
v -0.372893 -0.128949 -0.157471
v -0.419059 -0.120933 -0.185128
v -0.373105 -0.177151 -0.13193
v -0.372923 -0.129315 -0.153946
v -0.373105 -0.143607 -0.13193
v -0.437647 -0.185933 -0.138036
v -0.437647 -0.205192 -0.138036
v -0.395818 -0.132199 -0.134079
v -0.409792 -0.137553 -0.135401
v -0.419963 -0.121072 -0.18284
v -0.414103 -0.123587 -0.165011
v -0.394922 -0.128256 -0.140723
v -0.395219 -0.130323 -0.136935
v -0.412884 -0.12663 -0.16218
v -0.417934 -0.137905 -0.135941
v -0.392384 -0.229586 -0.19864
v -0.428193 -0.2315 -0.163617
v -0.410089 -0.190396 -0.203732
v -0.39311 -0.2315 -0.196883
v -0.395747 -0.2315 -0.109105
v -0.443142 -0.2315 -0.130494
v -0.443142 -0.162254 -0.130494
v -0.413943 -0.125903 -0.195191
v -0.418069 -0.125282 -0.186049
v -0.387894 -0.208871 -0.10556
v -0.369803 -0.163121 -0.172066
v -0.371148 -0.162682 -0.122182
v -0.440342 -0.160025 -0.129231
v -0.393943 -0.12983 -0.182482
v -0.394407 -0.130477 -0.136805
v -0.377442 -0.1315 -0.156338
v -0.378545 -0.135328 -0.136443
v -0.38935 -0.1315 -0.140198
v -0.380356 -0.174602 -0.103786
v -0.404616 -0.2485 -0.103369
v -0.380356 -0.2485 -0.103786
v -0.404616 -0.176616 -0.103369
v -0.378569 -0.2485 -0.212347
v -0.374413 -0.2485 -0.210984
v -0.445312 -0.2485 -0.173761
v -0.37623 -0.1315 -0.178201
v -0.415406 -0.1315 -0.191051
v -0.445312 -0.1315 -0.173761
v -0.427043 -0.1315 -0.142161
f 2 1 3
f 1 4 3
f 5 2 3
f 2 5 6
f 4 7 3
f 7 5 3
f 8 7 4
f 1 9 4
f 9 8 4
f 10 1 2
f 10 2 6
f 10 9 1
f 5 10 6
f 7 10 5
f 10 7 8
f 9 10 8
f 11 12 13
f 14 11 13
f 15 14 13
f 16 15 13
f 11 17 12
f 17 18 19
f 18 17 11
f 12 20 13
f 20 16 13
f 17 20 12
f 20 17 19
f 21 20 19
f 22 11 14
f 22 18 11
f 15 22 14
f 22 15 16
f 20 22 16
f 22 20 21
f 18 22 19
f 22 21 19
f 23 24 25
f 26 23 25
f 27 26 25
f 27 28 26
f 24 29 25
f 29 27 25
f 27 29 30
f 23 29 24
f 31 29 23
f 32 23 26
f 28 32 26
f 32 31 23
f 27 32 28
f 32 27 30
f 29 32 30
f 32 29 31
f 34 33 35
f 36 34 37
f 38 34 36
f 34 35 37
f 39 36 37
f 40 39 37
f 35 33 37
f 41 33 42
f 33 40 37
f 33 41 40
f 33 34 38
f 33 43 42
f 43 33 38
f 44 38 36
f 44 43 38
f 39 44 36
f 43 44 42
f 44 41 42
f 44 39 40
f 41 44 40
f 45 46 47
f 48 49 50
f 49 48 51
f 49 52 50
f 52 49 53
f 54 48 50
f 52 54 50
f 54 52 55
f 57 56 55
f 56 54 55
f 56 57 58
f 48 56 51
f 54 56 48
f 56 46 51
f 46 56 47
f 45 56 58
f 59 45 58
f 45 59 60
f 56 45 47
f 45 49 51
f 49 45 53
f 46 45 51
f 45 61 53
f 61 45 60
f 62 52 53
f 52 62 55
f 62 57 55
f 61 62 53
f 57 62 58
f 62 59 58
f 59 62 60
f 62 61 60
f 63 64 65
f 66 67 68
f 69 66 68
f 67 66 70
f 71 69 68
f 71 72 69
f 72 71 73
f 74 67 70
f 74 70 75
f 74 76 67
f 66 63 70
f 70 63 75
f 64 63 66
f 77 66 69
f 77 64 66
f 64 77 65
f 72 77 69
f 77 72 73
f 77 73 78
f 67 79 68
f 76 79 67
f 79 71 68
f 80 74 75
f 77 80 65
f 63 80 75
f 80 63 65
f 80 77 78
f 71 80 73
f 73 80 78
f 79 80 71
f 74 80 76
f 80 79 76
f 81 82 83
f 84 85 86
f 87 84 86
f 85 84 88
f 89 85 88
f 89 81 83
f 81 89 88
f 85 89 86
f 89 90 86
f 90 89 91
f 92 87 86
f 90 92 86
f 92 90 93
f 84 94 88
f 94 81 88
f 81 94 82
f 94 84 87
f 92 94 87
f 94 92 95
f 96 89 83
f 82 96 83
f 94 96 82
f 89 96 91
f 96 94 95
f 90 96 93
f 96 90 91
f 96 92 93
f 92 96 95
f 98 97 99
f 101 100 102
f 104 103 105
f 103 104 106
f 107 108 109
f 103 107 105
f 107 103 108
f 108 110 109
f 110 111 109
f 111 110 112
f 97 107 109
f 111 97 109
f 97 111 99
f 103 113 108
f 113 103 106
f 113 110 108
f 111 100 99
f 100 111 112
f 100 98 99
f 100 101 98
f 114 104 105
f 114 97 98
f 107 114 105
f 114 101 102
f 101 114 98
f 97 114 107
f 110 114 112
f 113 114 110
f 114 100 112
f 100 114 102
f 104 114 106
f 114 113 106
f 116 115 117
f 116 118 119
f 118 120 119
f 118 116 117
f 118 121 120
f 121 118 122
f 123 121 124
f 124 121 122
f 121 123 119
f 120 121 119
f 123 115 119
f 115 123 124
f 115 116 119
f 115 118 117
f 115 124 122
f 118 115 122
f 126 125 127
f 128 129 130
f 129 128 131
f 133 132 134
f 132 133 135
f 128 136 131
f 126 136 137
f 136 128 137
f 136 126 127
f 136 129 131
f 136 134 129
f 136 133 134
f 129 138 130
f 134 138 129
f 132 138 134
f 138 128 130
f 128 138 137
f 125 132 135
f 125 126 137
f 125 138 132
f 138 125 137
f 133 125 135
f 136 125 133
f 125 136 127
f 140 139 141
f 143 142 144
f 142 145 144
f 146 147 144
f 145 146 144
f 146 148 147
f 150 149 147
f 147 149 144
f 149 143 144
f 151 142 143
f 149 151 143
f 151 152 153
f 151 149 152
f 142 154 145
f 154 146 145
f 151 154 142
f 155 150 147
f 148 155 147
f 155 156 150
f 157 149 150
f 149 157 152
f 156 157 150
f 146 158 148
f 154 158 146
f 158 155 148
f 155 158 141
f 158 140 141
f 158 151 153
f 158 154 151
f 155 139 156
f 139 155 141
f 139 157 156
f 152 139 153
f 157 139 152
f 158 139 140
f 139 158 153
f 159 160 161
f 162 159 161
f 160 163 161
f 163 164 161
f 159 165 160
f 165 166 167
f 166 165 159
f 165 163 160
f 168 159 162
f 168 166 159
f 168 169 166
f 166 170 167
f 169 170 166
f 170 171 167
f 168 170 169
f 170 168 172
f 173 172 174
f 173 170 172
f 170 173 171
f 171 173 167
f 173 165 167
f 173 175 165
f 176 162 161
f 164 176 161
f 176 168 162
f 172 176 174
f 168 176 172
f 163 176 164
f 165 176 163
f 175 176 165
f 176 173 174
f 173 176 175
f 178 177 179
f 180 181 182
f 183 184 185
f 184 183 186
f 183 187 186
f 187 183 188
f 187 189 186
f 190 184 186
f 189 190 186
f 184 177 185
f 177 190 191
f 190 177 184
f 177 178 185
f 180 183 185
f 183 180 188
f 180 182 188
f 178 180 185
f 180 178 179
f 187 192 189
f 190 192 191
f 192 190 189
f 192 187 188
f 182 192 188
f 181 192 182
f 192 177 191
f 192 180 179
f 177 192 179
f 180 192 181
f 193 194 195
f 197 196 198
f 199 200 201
f 202 199 201
f 193 200 203
f 200 193 201
f 194 193 203
f 200 204 203
f 204 205 203
f 199 204 200
f 206 199 202
f 206 204 199
f 207 206 202
f 208 206 209
f 204 206 208
f 210 208 209
f 196 210 209
f 210 196 197
f 204 210 205
f 210 204 208
f 211 194 203
f 205 211 203
f 194 211 195
f 210 211 205
f 212 211 198
f 211 197 198
f 211 210 197
f 211 202 201
f 211 207 202
f 193 211 201
f 211 193 195
f 211 213 207
f 214 212 198
f 206 214 209
f 214 196 209
f 196 214 198
f 214 211 212
f 211 214 213
f 213 214 207
f 214 206 207
f 215 216 217
f 218 215 217
f 220 219 221
f 222 219 223
f 219 222 221
f 217 224 221
f 224 220 221
f 216 224 217
f 220 224 225
f 226 224 227
f 224 215 227
f 215 224 216
f 229 228 223
f 228 226 227
f 228 222 223
f 228 229 226
f 228 217 221
f 222 228 221
f 228 218 217
f 215 228 227
f 228 215 218
f 229 230 226
f 230 224 226
f 224 230 225
f 230 220 225
f 230 219 220
f 219 230 223
f 230 229 223
f 231 232 233
f 235 234 236
f 237 238 239
f 240 241 242
f 244 243 245
f 245 243 246
f 247 243 244
f 248 244 249
f 248 247 244
f 245 250 251
f 250 245 246
f 250 252 251
f 253 250 254
f 252 250 253
f 234 255 251
f 252 234 251
f 234 253 236
f 234 252 253
f 234 256 255
f 237 235 232
f 237 239 242
f 234 237 256
f 241 237 242
f 231 237 232
f 237 231 257
f 237 234 235
f 237 241 256
f 238 237 249
f 248 237 257
f 237 248 249
f 253 258 236
f 232 258 233
f 258 235 236
f 258 253 254
f 235 258 232
f 231 258 257
f 258 231 233
f 258 248 257
f 258 243 247
f 248 258 247
f 243 258 246
f 258 250 246
f 250 258 254
f 240 238 249
f 239 240 242
f 255 240 251
f 240 245 251
f 244 240 249
f 240 244 245
f 238 240 239
f 256 240 255
f 241 240 256
f 260 259 261
f 259 262 261
f 259 260 263
f 264 265 266
f 267 264 266
f 265 264 268
f 269 265 270
f 265 269 266
f 269 271 266
f 269 260 261
f 260 269 270
f 262 272 261
f 272 269 261
f 269 272 271
f 271 272 266
f 272 267 266
f 273 264 274
f 264 273 268
f 273 275 276
f 275 273 274
f 277 259 263
f 259 277 278
f 277 279 278
f 259 280 262
f 280 272 262
f 264 280 274
f 280 259 278
f 280 264 267
f 272 280 267
f 280 275 274
f 279 280 278
f 281 280 279
f 260 282 263
f 273 282 268
f 282 260 270
f 265 282 270
f 282 265 268
f 282 273 276
f 282 277 263
f 275 282 276
f 282 280 281
f 280 282 275
f 277 282 279
f 282 281 279
f 283 284 285
f 287 286 288
f 286 287 289
f 291 290 292
f 290 293 292
f 290 286 289
f 286 290 291
f 290 287 294
f 295 290 294
f 287 290 289
f 297 296 292
f 291 296 298
f 296 291 292
f 296 299 298
f 301 300 302
f 300 296 297
f 296 300 301
f 303 304 305
f 303 301 302
f 301 303 305
f 303 300 306
f 300 303 302
f 307 297 292
f 293 307 292
f 307 300 297
f 300 307 306
f 304 307 294
f 307 295 294
f 303 307 304
f 307 303 306
f 290 307 293
f 307 290 295
f 283 291 298
f 283 285 288
f 283 286 291
f 286 283 288
f 308 301 305
f 308 296 301
f 296 308 299
f 287 308 294
f 308 304 294
f 304 308 305
f 308 287 288
f 285 308 288
f 284 308 285
f 299 308 298
f 308 283 298
f 283 308 284
f 310 309 311
f 309 310 312
f 313 314 315
f 313 316 314
f 314 317 318
f 317 316 319
f 316 317 314
f 317 320 318
f 316 321 319
f 313 321 316
f 321 313 322
f 323 321 322
f 321 323 324
f 326 325 315
f 323 325 327
f 325 313 315
f 313 325 322
f 325 323 322
f 325 326 311
f 309 325 311
f 328 326 315
f 314 328 315
f 328 314 318
f 326 328 311
f 328 310 311
f 310 328 312
f 328 329 312
f 325 330 327
f 330 331 327
f 330 309 312
f 329 330 312
f 330 325 309
f 331 332 327
f 332 323 327
f 323 332 324
f 332 317 319
f 321 332 319
f 332 321 324
f 332 333 317
f 320 334 318
f 334 328 318
f 328 334 329
f 334 330 329
f 330 334 331
f 332 334 333
f 334 332 331
f 317 334 320
f 333 334 317
f 335 336 337
f 338 339 340
f 342 341 343
f 344 341 342
f 335 345 343
f 345 342 343
f 346 345 337
f 345 335 337
f 345 344 342
f 347 345 348
f 345 347 344
f 349 346 337
f 349 336 350
f 336 349 337
f 349 345 346
f 345 349 348
f 338 341 344
f 347 338 344
f 338 351 341
f 351 338 340
f 336 352 350
f 341 352 343
f 352 335 343
f 335 352 336
f 351 352 341
f 352 347 348
f 352 349 350
f 349 352 348
f 352 338 347
f 338 352 339
f 352 351 340
f 339 352 340
f 354 353 355
f 357 356 358
f 359 360 361
f 357 362 363
f 362 357 358
f 362 358 364
f 365 366 367
f 366 365 368
f 356 363 355
f 366 356 367
f 356 357 363
f 353 356 355
f 356 353 367
f 358 369 364
f 369 370 364
f 369 366 368
f 369 356 366
f 356 369 358
f 363 371 355
f 362 371 363
f 371 354 355
f 371 372 354
f 373 362 364
f 370 373 364
f 373 371 362
f 369 359 370
f 373 359 361
f 359 373 370
f 353 374 367
f 374 353 354
f 374 365 367
f 372 374 354
f 365 374 368
f 374 369 368
f 374 359 369
f 359 374 360
f 371 374 372
f 360 374 361
f 373 374 371
f 374 373 361
f 375 376 377
f 378 379 380
f 381 378 380
f 379 382 380
f 382 379 383
f 382 384 380
f 376 381 380
f 384 376 380
f 376 384 377
f 376 385 381
f 378 386 379
f 379 386 383
f 387 386 378
f 386 382 383
f 386 388 382
f 384 375 377
f 382 375 384
f 388 375 382
f 389 375 388
f 390 378 381
f 385 390 381
f 390 387 378
f 390 386 387
f 386 390 388
f 390 389 388
f 376 390 385
f 390 375 389
f 375 390 376
f 391 392 393
f 394 391 393
f 391 394 395
f 392 391 396
f 397 394 393
f 397 393 398
f 399 392 396
f 400 399 396
f 399 400 401
f 392 399 393
f 393 399 398
f 402 401 403
f 402 397 398
f 399 402 398
f 402 399 401
f 394 402 395
f 397 402 394
f 404 391 395
f 404 402 403
f 402 404 395
f 401 404 403
f 400 404 401
f 391 404 396
f 404 400 396
f 405 406 407
f 409 408 410
f 411 407 412
f 411 413 414
f 405 411 414
f 411 405 407
f 416 415 412
f 415 411 412
f 411 415 417
f 418 405 414
f 419 418 414
f 418 419 420
f 405 418 406
f 418 416 412
f 407 418 412
f 406 418 407
f 418 421 416
f 408 417 410
f 408 411 417
f 411 408 413
f 413 422 414
f 422 419 414
f 408 422 413
f 422 408 409
f 419 422 420
f 423 422 424
f 422 423 420
f 425 418 420
f 418 425 421
f 423 425 420
f 417 426 410
f 426 422 409
f 426 409 410
f 415 426 417
f 422 426 424
f 421 426 416
f 426 415 416
f 425 426 421
f 426 423 424
f 426 425 423
f 428 427 429
f 431 430 432
f 430 428 429
f 428 430 431
f 427 430 429
f 430 427 433
f 427 434 433
f 427 435 434
f 436 428 431
f 436 431 437
f 427 436 435
f 436 427 428
f 430 438 432
f 438 430 433
f 439 438 433
f 438 439 440
f 441 438 440
f 435 442 434
f 436 442 435
f 443 431 432
f 431 443 437
f 443 444 437
f 438 443 432
f 443 438 441
f 443 441 440
f 445 443 440
f 446 436 437
f 444 446 437
f 446 442 436
f 434 446 433
f 446 439 433
f 439 446 440
f 442 446 434
f 446 445 440
f 443 446 444
f 446 443 445
f 448 447 449
f 450 451 452
f 453 450 452
f 454 455 456
f 454 456 457
f 455 454 452
f 454 453 452
f 458 450 453
f 458 454 457
f 454 458 453
f 456 458 457
f 448 458 456
f 458 448 449
f 447 455 452
f 451 447 452
f 455 447 456
f 447 448 456
f 450 447 451
f 447 458 449
f 458 447 450
f 459 460 461
f 462 459 461
f 460 463 464
f 463 459 465
f 459 463 460
f 467 466 462
f 459 466 465
f 466 459 462
f 466 463 465
f 463 466 468
f 463 469 464
f 469 470 464
f 469 463 468
f 469 471 470
f 469 467 472
f 466 469 468
f 469 466 467
f 470 473 474
f 471 473 470
f 475 473 471
f 476 462 461
f 467 476 472
f 476 467 462
f 477 476 461
f 469 476 471
f 476 469 472
f 476 475 471
f 476 478 475
f 479 473 475
f 478 479 475
f 480 460 464
f 460 480 461
f 480 477 461
f 470 480 464
f 480 470 474
f 480 476 477
f 476 480 478
f 480 479 478
f 473 480 474
f 479 480 473
f 482 481 483
f 485 484 486
f 487 488 489
f 487 489 490
f 488 491 489
f 491 492 489
f 493 491 488
f 487 481 488
f 481 493 488
f 481 482 493
f 484 487 490
f 494 484 490
f 484 485 483
f 481 484 483
f 484 481 487
f 485 495 483
f 495 482 483
f 482 495 493
f 495 485 486
f 495 491 493
f 489 496 490
f 492 496 489
f 496 494 490
f 496 484 494
f 496 495 486
f 484 496 486
f 491 496 492
f 495 496 491
f 498 497 499
f 501 500 502
f 500 501 503
f 504 501 505
f 504 505 506
f 501 504 503
f 500 504 507
f 504 500 503
f 508 501 502
f 509 508 502
f 501 508 505
f 505 508 506
f 508 499 506
f 508 498 499
f 510 509 502
f 500 510 502
f 510 500 507
f 510 504 506
f 499 510 506
f 504 510 507
f 497 510 499
f 508 510 498
f 510 508 509
f 510 497 498
f 511 512 513
f 511 514 515
f 514 511 513
f 517 516 518
f 518 516 519
f 516 512 519
f 512 516 513
f 520 518 519
f 521 520 519
f 512 522 519
f 511 522 512
f 522 521 519
f 522 520 521
f 520 522 523
f 522 524 523
f 514 525 515
f 525 526 515
f 526 525 527
f 525 514 513
f 516 525 513
f 528 517 518
f 520 528 518
f 528 520 523
f 529 511 515
f 522 529 524
f 529 522 511
f 526 529 515
f 530 516 517
f 530 525 516
f 525 530 527
f 528 530 517
f 524 530 523
f 530 528 523
f 529 530 524
f 530 526 527
f 530 529 526
f 531 532 533
f 532 534 533
f 534 535 533
f 534 532 536
f 538 537 539
f 537 540 539
f 537 538 541
f 538 531 541
f 532 531 536
f 531 538 536
f 542 538 539
f 538 542 536
f 542 534 536
f 535 543 533
f 543 537 541
f 531 543 541
f 543 531 533
f 534 544 535
f 542 544 534
f 544 543 535
f 540 544 539
f 544 542 539
f 537 544 540
f 543 544 537
f 545 546 547
f 545 548 549
f 548 545 547
f 550 548 547
f 548 550 551
f 550 552 551
f 552 553 551
f 553 552 554
f 555 553 554
f 553 555 556
f 548 557 549
f 557 548 551
f 553 557 551
f 557 553 556
f 557 555 558
f 555 557 556
f 559 545 549
f 557 559 549
f 559 557 558
f 550 560 552
f 560 555 554
f 552 560 554
f 555 560 558
f 560 559 558
f 546 560 547
f 560 550 547
f 545 560 546
f 559 560 545
f 561 562 563
f 561 563 564
f 562 565 563
f 565 562 566
f 563 567 564
f 565 567 563
f 567 565 568
f 567 561 564
f 561 567 569
f 561 570 562
f 562 570 566
f 570 561 569
f 570 565 566
f 565 570 568
f 570 567 568
f 567 570 569
f 572 571 573
f 575 574 576
f 574 575 577
f 578 576 579
f 575 578 580
f 578 575 576
f 576 581 579
f 581 574 582
f 574 581 576
f 583 581 582
f 584 583 582
f 583 584 585
f 584 586 585
f 586 584 587
f 588 583 585
f 588 581 583
f 588 578 579
f 581 588 579
f 574 589 582
f 589 574 577
f 589 584 582
f 584 571 587
f 589 571 584
f 571 589 573
f 578 590 580
f 586 590 585
f 590 588 585
f 588 590 578
f 590 575 580
f 575 590 577
f 590 589 577
f 590 572 573
f 589 590 573
f 590 586 587
f 571 590 587
f 590 571 572
f 591 592 593
f 591 594 595
f 594 591 593
f 596 597 598
f 599 596 598
f 600 596 601
f 596 600 597
f 602 596 603
f 596 604 601
f 604 596 602
f 592 605 593
f 597 605 598
f 605 597 593
f 606 594 593
f 597 606 593
f 600 606 597
f 594 606 595
f 606 602 595
f 606 604 602
f 606 600 601
f 604 606 601
f 591 607 592
f 607 605 592
f 608 599 598
f 605 608 598
f 607 608 605
f 608 591 595
f 602 608 595
f 608 602 603
f 608 607 591
f 608 596 599
f 596 608 603
f 610 609 611
f 613 612 614
f 615 616 617
f 618 615 617
f 616 615 619
f 616 609 617
f 609 620 617
f 620 609 621
f 609 610 621
f 609 613 614
f 613 609 616
f 622 611 623
f 622 624 621
f 610 622 621
f 622 610 611
f 615 622 623
f 622 615 618
f 625 622 618
f 620 626 617
f 626 618 617
f 626 625 618
f 626 620 621
f 624 626 621
f 622 626 624
f 626 622 625
f 612 615 623
f 612 609 614
f 611 612 623
f 615 612 619
f 609 612 611
f 612 616 619
f 612 613 616
f 627 628 629
f 630 627 629
f 627 631 632
f 631 627 630
f 633 627 632
f 635 634 636
f 636 634 637
f 628 638 629
f 638 628 639
f 635 638 639
f 638 635 636
f 638 630 629
f 638 640 630
f 641 642 643
f 641 633 632
f 644 641 643
f 633 641 644
f 645 633 644
f 645 627 633
f 647 646 648
f 646 631 630
f 640 646 630
f 646 649 648
f 649 646 640
f 642 646 647
f 641 646 642
f 631 646 632
f 646 641 632
f 628 650 639
f 627 650 628
f 645 650 627
f 651 644 643
f 651 645 644
f 650 651 652
f 651 650 645
f 653 651 648
f 651 647 648
f 642 651 643
f 651 642 647
f 654 651 653
f 655 651 654
f 656 635 639
f 650 656 639
f 656 652 657
f 656 634 635
f 656 650 652
f 658 636 637
f 638 658 640
f 658 638 636
f 658 649 640
f 652 659 657
f 651 659 652
f 660 659 655
f 659 651 655
f 659 656 657
f 656 659 661
f 634 662 637
f 656 662 634
f 662 656 661
f 662 658 637
f 662 653 648
f 649 662 648
f 658 662 649
f 662 663 653
f 664 659 660
f 659 664 661
f 664 662 661
f 662 664 663
f 664 655 654
f 664 660 655
f 664 654 653
f 663 664 653
f 666 665 667
f 669 668 670
f 671 668 672
f 668 671 670
f 673 671 672
f 666 673 672
f 673 666 667
f 675 674 670
f 674 676 677
f 674 669 670
f 676 674 675
f 678 675 670
f 671 678 670
f 673 678 671
f 678 673 667
f 678 665 679
f 665 678 667
f 680 678 679
f 678 676 675
f 678 680 676
f 681 668 669
f 674 681 669
f 682 681 674
f 676 683 677
f 684 683 679
f 683 680 679
f 680 683 676
f 685 683 684
f 668 686 672
f 686 666 672
f 686 684 679
f 665 686 679
f 686 665 666
f 681 686 668
f 686 685 684
f 686 687 685
f 688 674 677
f 688 682 674
f 683 688 677
f 688 681 682
f 686 688 687
f 688 686 681
f 688 683 685
f 687 688 685
f 690 689 691
f 689 690 692
f 693 690 694
f 690 693 692
f 695 696 697
f 695 689 692
f 693 695 692
f 695 693 696
f 695 698 699
f 700 695 697
f 698 695 701
f 695 700 701
f 691 695 699
f 689 695 691
f 702 691 699
f 690 702 694
f 702 690 691
f 698 702 699
f 702 698 701
f 703 702 701
f 693 704 696
f 704 693 694
f 702 704 694
f 704 702 703
f 696 704 697
f 704 700 697
f 700 704 701
f 704 703 701
f 705 706 707
f 708 709 710
f 709 708 711
f 709 712 713
f 712 709 711
f 715 714 716
f 714 709 713
f 714 715 710
f 709 714 710
f 717 708 718
f 719 717 718
f 708 717 711
f 717 712 711
f 712 717 713
f 717 714 713
f 714 717 720
f 715 721 710
f 708 721 718
f 721 708 710
f 721 719 718
f 721 722 719
f 714 706 716
f 706 714 720
f 707 706 720
f 717 705 720
f 722 705 719
f 705 717 719
f 705 707 720
f 705 715 716
f 721 705 722
f 705 721 715
f 706 705 716
f 724 723 725
f 726 727 728
f 727 726 729
f 728 730 731
f 730 727 732
f 727 730 728
f 730 733 731
f 730 734 733
f 735 730 732
f 730 735 734
f 727 736 732
f 736 727 729
f 736 735 732
f 726 736 729
f 724 736 726
f 736 724 725
f 734 723 733
f 735 723 734
f 736 723 735
f 723 736 725
f 723 728 731
f 733 723 731
f 723 726 728
f 723 724 726
